<svg width="322" height="129" viewBox="0 0 322 129" fill="none" xmlns="http://www.w3.org/2000/svg">
<path d="M3.86621 54.013C3.86621 54.013 32.6062 54.013 60.6262 89.713C68.5162 100.933 82.8262 104.173 94.2862 87.013C105.746 69.853 109.016 84.313 120.986 78.313C132.956 72.343 139.856 38.503 157.346 27.103C174.806 15.703 193.316 28.393 220.586 45.133C247.886 61.873 280.556 30.613 288.536 21.643C296.516 12.673 299.186 3.013 318.866 3.013C318.866 71.263 318.866 128.653 318.866 128.653H3.86621V54.013Z" fill="#FFDEDE"/>
<path d="M3.77246 54.942C3.77246 54.942 32.5125 54.942 60.5325 91.302C68.4225 102.732 82.7325 106.032 94.1925 88.542C105.652 71.082 108.922 85.782 120.892 79.692C132.862 73.602 139.762 39.132 157.252 27.552C174.712 15.942 193.222 28.872 220.492 45.912C247.792 62.952 280.462 31.122 288.442 21.972C296.422 12.822 299.092 3.01202 318.772 3.01202" stroke="#C52133" stroke-width="6" stroke-linecap="round" stroke-linejoin="round"/>
<path d="M173.866 7.5C181.317 7.5 187.366 13.5493 187.366 21C187.366 28.4507 181.317 34.5 173.866 34.5C166.416 34.5 160.366 28.4507 160.366 21C160.366 13.5493 166.416 7.5 173.866 7.5Z" fill="#C52133"/>
</svg>
