<svg width="81" height="80" viewBox="0 0 81 80" fill="none" xmlns="http://www.w3.org/2000/svg">
<path d="M57.3936 0H24.2686C11.3244 0 0.831055 10.4933 0.831055 23.4375V56.5625C0.831055 69.5067 11.3244 80 24.2686 80H57.3936C70.3377 80 80.8311 69.5067 80.8311 56.5625V23.4375C80.8311 10.4933 70.3377 0 57.3936 0Z" fill="url(#paint0_linear_1611_259)"/>
<g clip-path="url(#clip0_1611_259)">
<g clip-path="url(#clip1_1611_259)">
<path d="M58.3549 38.809H55.0692V30.0472C55.0692 27.6267 53.1087 25.6662 50.6882 25.6662H41.9263V22.3805C41.9263 19.3576 39.4729 16.9043 36.4501 16.9043C33.4272 16.9043 30.9739 19.3576 30.9739 22.3805V25.6662H22.212C19.7916 25.6662 17.853 27.6266 17.853 30.0472L17.842 38.371H21.1168C24.3806 38.371 27.0311 41.0214 27.0311 44.2853C27.0311 47.5491 24.3806 50.1996 21.1168 50.1996H17.842L17.8311 58.5233C17.8311 60.9439 19.7915 62.9043 22.212 62.9043H30.5359V59.6186C30.5359 56.3547 33.1863 53.7043 36.4502 53.7043C39.714 53.7043 42.3645 56.3547 42.3645 59.6186V62.9043H50.6882C53.1086 62.9043 55.0692 60.9439 55.0692 58.5233V49.7614H58.3549C61.3778 49.7614 63.8311 47.3081 63.8311 44.2853C63.8311 41.2624 61.3778 38.809 58.3549 38.809Z" fill="white"/>
</g>
</g>
<defs>
<linearGradient id="paint0_linear_1611_259" x1="1.83887" y1="1.00781" x2="81.2451" y2="80.4141" gradientUnits="userSpaceOnUse">
<stop stop-color="#D20AEF"/>
<stop offset="0.37" stop-color="#890FD1"/>
<stop offset="0.8" stop-color="#3715B0"/>
<stop offset="1" stop-color="#1717A3"/>
</linearGradient>
<clipPath id="clip0_1611_259">
<rect width="46" height="46" fill="white" transform="translate(17.8311 16.9043)"/>
</clipPath>
<clipPath id="clip1_1611_259">
<rect width="46" height="46" fill="white" transform="translate(17.8311 16.9043)"/>
</clipPath>
</defs>
</svg>
