<svg width="23" height="24" viewBox="0 0 23 24" fill="none" xmlns="http://www.w3.org/2000/svg">
<path fill-rule="evenodd" clip-rule="evenodd" d="M21.8935 12.3246C21.8935 11.5069 21.8234 10.7207 21.6933 9.96591H11.3236V14.4264H17.2491C16.9939 15.8678 16.2182 17.0891 15.0521 17.9067V20.8H18.6104C20.6924 18.7926 21.8935 15.8364 21.8935 12.3246Z" fill="#4285F4"/>
<path fill-rule="evenodd" clip-rule="evenodd" d="M11.3236 23.5937C14.2964 23.5937 16.7887 22.5611 18.6104 20.8L15.0521 17.9067C14.0662 18.5986 12.805 19.0074 11.3236 19.0074C8.45596 19.0074 6.0287 16.979 5.16289 14.2534H1.48447V17.241C3.29615 21.0097 7.01962 23.5937 11.3236 23.5937Z" fill="#34A853"/>
<path fill-rule="evenodd" clip-rule="evenodd" d="M5.16287 14.2534C4.94266 13.5615 4.81754 12.8224 4.81754 12.0624C4.81754 11.3024 4.94266 10.5634 5.16287 9.87149V6.88385H1.48444C0.738743 8.44057 0.313347 10.2017 0.313347 12.0624C0.313347 13.9232 0.738743 15.6843 1.48444 17.241L5.16287 14.2534Z" fill="#FBBC05"/>
<path fill-rule="evenodd" clip-rule="evenodd" d="M11.3236 5.11754C12.9401 5.11754 14.3915 5.69935 15.5326 6.84199L18.6905 3.53462C16.7837 1.67389 14.2914 0.53125 11.3236 0.53125C7.01962 0.53125 3.29615 3.1153 1.48447 6.88392L5.16289 9.87156C6.0287 7.14599 8.45596 5.11754 11.3236 5.11754Z" fill="#EA4335"/>
</svg>
